<svg width="12" height="15" viewBox="0 0 20 23" fill="none" xmlns="http://www.w3.org/2000/svg">
<path d="M12.8013 6.93539V5.02418H13.5239L10.0013 3.11279L6.47845 5.02418H7.20105V6.93558H4.17505V15.2877H8.39805V11.4646H11.6045V15.2875H15.8275V6.93539H12.8013ZM6.32605 7.97426H7.17285V8.75331H6.32605V7.97426ZM4.70005 7.97426H5.54685V8.75331H4.70005V7.97426ZM4.70005 9.22067H5.54685V9.99954H4.70005V9.22067ZM5.86865 14.2382H4.88625V13.3344H5.86865V14.2382ZM5.86865 12.5238H4.88625V11.6204H5.86865V12.5238ZM6.32605 9.22067H7.17285V9.99954H6.32605V9.22067ZM7.69785 14.2382H6.71545V13.3344H7.69785V14.2382ZM7.69785 12.5238H6.71545V11.6204H7.69785V12.5238ZM8.79865 9.99973H7.95185V9.22086H8.79865V9.99973ZM8.79865 8.75331H7.95185V7.97426H8.79865V8.75331ZM10.4247 9.99973H9.57765V9.22086H10.4247V9.99973ZM10.4247 8.75331H9.57765V7.97426H10.4247V8.75331ZM10.0013 6.32249C9.55245 6.32249 9.18845 5.98761 9.18845 5.57453C9.18845 5.16145 9.55245 4.82675 10.0013 4.82675C10.4503 4.82675 10.8143 5.16163 10.8143 5.57453C10.8141 5.98779 10.4501 6.32249 10.0013 6.32249ZM12.0505 9.99973H11.2037V9.22086H12.0505V9.99973ZM12.0505 8.75331H11.2037V7.97426H12.0505V8.75331ZM13.2869 14.2382H12.3049V13.3344H13.2869V14.2382ZM13.2869 12.5238H12.3049V11.6204H13.2869V12.5238ZM13.6767 9.99973H12.8299V9.22086H13.6767V9.99973ZM13.6767 8.75331H12.8299V7.97426H13.6767V8.75331ZM15.1161 14.2382H14.1337V13.3344H15.1161V14.2382ZM15.1161 12.5238H14.1337V11.6204H15.1161V12.5238ZM15.3025 9.99973H14.4557V9.22086H15.3025V9.99973ZM15.3025 8.75331H14.4557V7.97426H15.3025V8.75331Z" fill="#29ABE2"/>
</svg>
