<svg width="12" height="15" viewBox="0 0 12 15" fill="none" xmlns="http://www.w3.org/2000/svg">
<path d="M4.39277 6.65967H1.48877V11.6997H4.39277V6.65967Z" fill="#29ABE2"/>
<path d="M10.5141 6.66016H7.61011V11.7002H10.5141V6.66016Z" fill="#29ABE2"/>
<path d="M8.59286 3.5158C9.26486 3.3118 9.74485 2.6878 9.74485 1.9438C9.74485 1.0318 9.01286 0.299805 8.10086 0.299805C6.99686 0.299805 6.44486 0.935805 6.00086 1.6678C5.55686 0.935805 5.00486 0.299805 3.90086 0.299805C2.98886 0.299805 2.25686 1.0318 2.25686 1.9438C2.25686 2.6758 2.73686 3.2998 3.40886 3.5158H0.828857V5.8438H4.39286V3.5878H5.20886V11.6998H6.78086V3.5878H7.59686V5.8438H11.1609V3.5158H8.59286ZM8.10086 1.2838C8.46086 1.2838 8.76086 1.5838 8.76086 1.9438C8.76086 2.3038 8.46086 2.6038 8.10086 2.6038H6.60086C7.09286 1.7158 7.36886 1.2838 8.10086 1.2838ZM3.90086 1.2838C4.63286 1.2838 4.90886 1.7158 5.40086 2.6158H3.90086C3.54086 2.6158 3.24086 2.3158 3.24086 1.9558C3.24086 1.5958 3.54086 1.2838 3.90086 1.2838Z" fill="#29ABE2"/>
</svg>
