<svg width="9" height="17" viewBox="0 0 9 17" fill="none" xmlns="http://www.w3.org/2000/svg">
<g clip-path="url(#clip0_1551_514)">
<path fill-rule="evenodd" clip-rule="evenodd" d="M4.60485 13.5381C5.86211 11.3257 7.10501 9.09552 8.39474 6.90448C10.1443 3.93242 7.87546 0 4.50053 0C1.1256 0 -1.14322 3.93242 0.606316 6.90448C1.85898 9.1222 3.12889 11.3295 4.39535 13.5386C4.44219 13.6208 4.55829 13.6199 4.60485 13.5381ZM4.50053 2.36117C5.70837 2.36117 6.68745 3.37103 6.68745 4.61682C6.68745 5.86262 5.70837 6.87247 4.50053 6.87247C3.29269 6.87247 2.31332 5.86262 2.31332 4.61682C2.31332 3.37103 3.29269 2.36117 4.50053 2.36117Z" fill="#29ABE2"/>
</g>
<defs>
<clipPath id="clip0_1551_514">
<rect width="9" height="17" fill="white"/>
</clipPath>
</defs>
</svg>
