<svg width="32" height="40" viewBox="0 0 32 40" fill="none" xmlns="http://www.w3.org/2000/svg">
<path d="M30.6211 19.3043C30.6981 18.9637 30.7563 18.6171 30.8096 18.2683C30.8408 18.064 30.8808 17.8629 30.9034 17.6558C30.9635 17.1115 31 16.5601 31 16C31 15.4399 30.9635 14.8886 30.9034 14.3442C30.8808 14.137 30.8408 13.9357 30.8095 13.7313C30.7562 13.3826 30.698 13.0362 30.6211 12.6958C30.604 12.6217 30.5983 12.5437 30.58 12.47C30.5729 12.4581 30.5618 12.4494 30.5546 12.4377C28.9488 5.8844 23.0407 1 16 1C8.95929 1 3.05121 5.8844 1.44543 12.4377C1.43817 12.4494 1.42712 12.4581 1.41998 12.47C1.40173 12.5437 1.396 12.6217 1.37891 12.6958C1.302 13.0362 1.24377 13.3826 1.19049 13.7313C1.15924 13.9357 1.1192 14.137 1.09662 14.3442C1.0365 14.8886 1 15.4399 1 16V18C1 19.65 2.34998 21 4 21C5.65002 21 7 19.65 7 18V14C7 12.3542 5.65649 11.0081 4.01221 11.0012C4.54333 9.7301 5.25879 8.55579 6.14001 7.52997C6.19 7.58997 6.22998 7.64996 6.28998 7.70996L6.81 8.22998C7.01001 8.41998 7.26001 8.51996 7.52002 8.51996C7.78003 8.51996 8.03003 8.41998 8.22998 8.22998C8.76001 7.69 9.34003 7.21997 9.96002 6.81C11.74 5.63 13.82 5 16 5C18.18 5 20.26 5.63 22.04 6.81C22.66 7.21997 23.24 7.69 23.77 8.22998C23.97 8.41998 24.22 8.51996 24.48 8.51996C24.74 8.51996 24.99 8.41998 25.19 8.22998L25.71 7.70996C25.77 7.64996 25.81 7.58997 25.86 7.52997C26.7412 8.55579 27.4567 9.7301 27.9878 11.0012C26.3435 11.0081 25 12.3542 25 14V18C25 19.6492 26.3487 20.9984 27.9977 20.9998C26.411 24.7944 23.0724 27.6701 19 28.6368V28C19 26.35 17.65 25 16 25C14.35 25 13 26.35 13 28V30C13 30.55 13.45 31 14 31H16C16.4886 31 16.9725 30.9721 17.4504 30.9265C17.5803 30.9139 17.7068 30.8917 17.8356 30.8758C18.1051 30.8431 18.3773 30.8163 18.64 30.77C18.6464 30.7645 18.6489 30.756 18.6552 30.7504C24.4916 29.7014 29.1557 25.2711 30.5546 19.5623C30.5618 19.5505 30.5729 19.5418 30.58 19.53C30.5983 19.4563 30.604 19.3784 30.6211 19.3043ZM4 13C4.54999 13 5 13.45 5 14V18C5 18.55 4.54999 19 4 19C3.45001 19 3 18.55 3 18V16C3 15.0701 3.10913 14.1656 3.29614 13.2892C3.48425 13.1166 3.72687 13 4 13ZM15 28C15 27.45 15.45 27 16 27C16.55 27 17 27.45 17 28V28.9494C16.6689 28.9748 16.3375 29 16 29H15V28ZM28 19C27.45 19 27 18.55 27 18V14C27 13.45 27.45 13 28 13C28.2731 13 28.5157 13.1166 28.7039 13.2892C28.8909 14.1656 29 15.0701 29 16C29 16.9277 28.8984 17.8315 28.713 18.7047C28.5239 18.8814 28.277 19 28 19Z" fill="black"/>
</svg>
